Coordinates
version=1
nRows=54
nColumns=12
inDegrees=yes

Units are S.I. units (second, meters, Newtons, ...)
Angles are in degrees

endheader
time	SC_y	SC_z	SC_x	AC_y	AC_z	AC_x	GH_y	GH_z	GH_yy	EL_x	PS_y
       0.0              -22.53          27.17           15.7          52.81         -10.15          2.912          6.843          13.89          90.68           21.5           11.4
   0.02556              -22.53          27.17           15.7          52.81         -10.15          2.914          6.842          13.89          90.66          21.51          11.41
   0.05112              -22.53          27.17           15.7          52.81         -10.15          2.916          6.841          13.89          90.64          21.52          11.41
   0.07668              -22.53          27.17           15.7          52.81         -10.15          2.918          6.839          13.89          90.62          21.53          11.42
    0.1022              -22.54          27.17           15.7          52.81         -10.15          2.921          6.838          13.89           90.6          21.54          11.43
    0.1278              -22.54          27.17          15.71          52.81         -10.15          2.923          6.837          13.89          90.58          21.55          11.44
    0.1534              -22.54          27.17          15.71          52.81         -10.15          2.926          6.836           13.9          90.55          21.57          11.44
    0.1789              -22.55          27.17          15.71           52.8         -10.15          2.928          6.834           13.9          90.53          21.58          11.45
    0.2045              -22.55          27.17          15.71           52.8         -10.15          2.931          6.832           13.9           90.5          21.59          11.46
      0.23              -22.56          27.17          15.72           52.8         -10.15          2.935          6.831           13.9          90.47          21.61          11.47
    0.2556              -22.56          27.17          15.72           52.8         -10.15          2.938          6.829           13.9          90.44          21.63          11.48
    0.2812              -22.57          27.17          15.72           52.8         -10.15          2.942          6.827           13.9          90.41          21.65          11.49
    0.3067              -22.57          27.17          15.72          52.79         -10.15          2.946          6.825          13.91          90.37          21.67           11.5
    0.3323              -22.58          27.17          15.73          52.79         -10.15           2.95          6.823          13.91          90.33          21.69          11.52
    0.3579              -22.59          27.17          15.73          52.79         -10.15          2.954           6.82          13.91          90.29          21.71          11.53
    0.3834              -22.59          27.16          15.73          52.79         -10.15          2.959          6.818          13.91          90.24          21.74          11.54
     0.409               -22.6          27.16          15.74          52.78         -10.14          2.965          6.815          13.92          90.19          21.77          11.56
    0.4345              -22.61          27.16          15.74          52.78         -10.14          2.971          6.812          13.92          90.14           21.8          11.58
    0.4601              -22.62          27.16          15.75          52.77         -10.14          2.977          6.808          13.92          90.08          21.83           11.6
    0.4857              -22.63          27.16          15.75          52.77         -10.14          2.984          6.804          13.93          90.01          21.86          11.62
    0.5112              -22.64          27.16          15.76          52.76         -10.14          2.992            6.8          13.93          89.94           21.9          11.64
    0.5368              -22.65          27.16          15.76          52.76         -10.14          3.001          6.796          13.93          89.86          21.95          11.67
    0.5623              -22.66          27.16          15.77          52.75         -10.14           3.01          6.791          13.94          89.77           22.0           11.7
    0.5879              -22.68          27.16          15.78          52.75         -10.14          3.021          6.785          13.94          89.67          22.05          11.73
    0.6135               -22.7          27.15          15.79          52.74         -10.14          3.032          6.779          13.95          89.57          22.11          11.76
     0.639              -22.71          27.15           15.8          52.73         -10.14          3.045          6.772          13.96          89.45          22.18           11.8
    0.6646              -22.73          27.15          15.81          52.72         -10.14           3.06          6.764          13.96          89.31          22.25          11.85
    0.6901              -22.76          27.15          15.82          52.71         -10.14          3.076          6.756          13.97          89.16          22.33           11.9
    0.7157              -22.78          27.15          15.83           52.7         -10.14          3.095          6.746          13.98          88.99          22.43          11.95
    0.7413              -22.81          27.14          15.85          52.69         -10.14          3.116          6.735          13.99          88.79          22.53          12.01
    0.7668              -22.85          27.14          15.87          52.67         -10.14           3.14          6.722           14.0          88.57          22.66          12.09
    0.7924              -22.89          27.14          15.89          52.65         -10.13          3.168          6.707          14.02          88.32           22.8          12.17
     0.818              -22.93          27.13          15.91          52.63         -10.13          3.199          6.691          14.03          88.02          22.96          12.27
    0.8435              -22.98          27.13          15.94          52.61         -10.13          3.236          6.671          14.05          87.68          23.15          12.38
    0.8691              -23.04          27.12          15.97          52.58         -10.13           3.28          6.648          14.07          87.28          23.37          12.51
    0.8946              -23.12          27.11          16.01          52.55         -10.13          3.331          6.621           14.1          86.81          23.63          12.66
    0.9202               -23.2           27.1          16.05          52.51         -10.12          3.391          6.589          14.13          86.25          23.94          12.84
    0.9458               -23.3          27.09          16.11          52.47         -10.12          3.464           6.55          14.17          85.58          24.31          13.06
    0.9713              -23.43          27.08          16.17          52.41         -10.11          3.552          6.504          14.21          84.77          24.75          13.32
    0.9969              -23.58          27.07          16.25          52.35         -10.11          3.659          6.447          14.26          83.78           25.3          13.65
     1.022              -23.77          27.05          16.35          52.26          -10.1          3.791          6.377          14.33          82.55          25.98          14.04
     1.048               -24.0          27.03          16.47          52.16         -10.09          3.957          6.289          14.41          81.02          26.82          14.54
     1.074              -24.29           27.0          16.63          52.03         -10.08          4.165          6.179          14.52           79.1          27.88          15.17
     1.099              -24.67          26.96          16.83          51.86         -10.07          4.429          6.039          14.65          76.66          29.23          15.96
     1.125              -25.15          26.91          17.08          51.65         -10.05          4.768           5.86          14.82          73.53          30.95          16.98
      1.15              -25.76          26.85           17.4          51.38         -10.02          5.203          5.629          15.04          69.51          33.16          18.28
     1.176              -26.54          26.78          17.81          51.03         -9.994          5.758          5.335          15.32          64.38          35.99          19.95
     1.201              -27.53          26.68          18.33          50.59         -9.956          6.456          4.966          15.67          57.93          39.55          22.05
     1.227              -28.73          26.56          18.96          50.06          -9.91          7.306          4.515           16.1          50.07          43.88           24.6
     1.252              -30.12          26.42           19.7          49.44         -9.857          8.292          3.993          16.59          40.96           48.9          27.56
     1.278              -31.63          26.28          20.49          48.77         -9.799           9.36          3.427          17.13          31.09          54.34          30.77
     1.304              -33.13          26.13          21.28           48.1         -9.741          10.43          2.862          17.67          21.22          59.78          33.98
     1.329              -34.52          25.99          22.01          47.48         -9.688          11.41          2.339          18.16          12.11           64.8          36.94
     1.355              -35.72          25.87          22.65          46.94         -9.642          12.26          1.889          18.59           4.25          69.13          39.49
